<svg id="visual" viewBox="0 0 960 100" width="960" height="100" xmlns="http://www.w3.org/2000/svg" xmlns:xlink="http://www.w3.org/1999/xlink" version="1.1"><path d="M0 19L16 17.5C32 16 64 13 96 13.3C128 13.7 160 17.3 192 18.3C224 19.3 256 17.7 288 15.8C320 14 352 12 384 12C416 12 448 14 480 14.5C512 15 544 14 576 13.8C608 13.7 640 14.3 672 14.8C704 15.3 736 15.7 768 16.5C800 17.3 832 18.7 864 19C896 19.3 928 18.7 944 18.3L960 18L960 0L944 0C928 0 896 0 864 0C832 0 800 0 768 0C736 0 704 0 672 0C640 0 608 0 576 0C544 0 512 0 480 0C448 0 416 0 384 0C352 0 320 0 288 0C256 0 224 0 192 0C160 0 128 0 96 0C64 0 32 0 16 0L0 0Z" fill="#e3ecfc"></path><path d="M0 54L16 53.2C32 52.3 64 50.7 96 49.7C128 48.7 160 48.3 192 49.5C224 50.7 256 53.3 288 52.8C320 52.3 352 48.7 384 46C416 43.3 448 41.7 480 39.5C512 37.3 544 34.7 576 35.3C608 36 640 40 672 43.5C704 47 736 50 768 51.5C800 53 832 53 864 53C896 53 928 53 944 53L960 53L960 16L944 16.3C928 16.7 896 17.3 864 17C832 16.7 800 15.3 768 14.5C736 13.7 704 13.3 672 12.8C640 12.3 608 11.7 576 11.8C544 12 512 13 480 12.5C448 12 416 10 384 10C352 10 320 12 288 13.8C256 15.7 224 17.3 192 16.3C160 15.3 128 11.7 96 11.3C64 11 32 14 16 15.5L0 17Z" fill="#dfe9fc"></path><path d="M0 71L16 71.5C32 72 64 73 96 72.8C128 72.7 160 71.3 192 71C224 70.7 256 71.3 288 71.7C320 72 352 72 384 73.5C416 75 448 78 480 76.7C512 75.3 544 69.7 576 68.8C608 68 640 72 672 72.7C704 73.3 736 70.7 768 70.7C800 70.7 832 73.3 864 74.7C896 76 928 76 944 76L960 76L960 51L944 51C928 51 896 51 864 51C832 51 800 51 768 49.5C736 48 704 45 672 41.5C640 38 608 34 576 33.3C544 32.7 512 35.3 480 37.5C448 39.7 416 41.3 384 44C352 46.7 320 50.3 288 50.8C256 51.3 224 48.7 192 47.5C160 46.3 128 46.7 96 47.7C64 48.7 32 50.3 16 51.2L0 52Z" fill="#dae6fb"></path><path d="M0 92L16 91C32 90 64 88 96 88.2C128 88.3 160 90.7 192 91.3C224 92 256 91 288 90.5C320 90 352 90 384 90.5C416 91 448 92 480 91.2C512 90.3 544 87.7 576 87.7C608 87.7 640 90.3 672 91.8C704 93.3 736 93.7 768 93.8C800 94 832 94 864 92.8C896 91.7 928 89.3 944 88.2L960 87L960 74L944 74C928 74 896 74 864 72.7C832 71.3 800 68.7 768 68.7C736 68.7 704 71.3 672 70.7C640 70 608 66 576 66.8C544 67.7 512 73.3 480 74.7C448 76 416 73 384 71.5C352 70 320 70 288 69.7C256 69.3 224 68.7 192 69C160 69.3 128 70.7 96 70.8C64 71 32 70 16 69.5L0 69Z" fill="#d6e3fb"></path><path d="M0 101L16 101C32 101 64 101 96 101C128 101 160 101 192 101C224 101 256 101 288 101C320 101 352 101 384 101C416 101 448 101 480 101C512 101 544 101 576 101C608 101 640 101 672 101C704 101 736 101 768 101C800 101 832 101 864 101C896 101 928 101 944 101L960 101L960 85L944 86.2C928 87.3 896 89.7 864 90.8C832 92 800 92 768 91.8C736 91.7 704 91.3 672 89.8C640 88.3 608 85.7 576 85.7C544 85.7 512 88.3 480 89.2C448 90 416 89 384 88.5C352 88 320 88 288 88.5C256 89 224 90 192 89.3C160 88.7 128 86.3 96 86.2C64 86 32 88 16 89L0 90Z" fill="#d1e0fa"></path></svg>