<svg id="visual" viewBox="0 0 900 100" width="900" height="100" xmlns="http://www.w3.org/2000/svg" xmlns:xlink="http://www.w3.org/1999/xlink" version="1.1"><path d="M0 10L21.5 9.8C43 9.7 86 9.3 128.8 8.8C171.7 8.3 214.3 7.7 257.2 9.2C300 10.7 343 14.3 385.8 16.5C428.7 18.7 471.3 19.3 514.2 18.5C557 17.7 600 15.3 642.8 15.7C685.7 16 728.3 19 771.2 19.8C814 20.7 857 19.3 878.5 18.7L900 18L900 0L878.5 0C857 0 814 0 771.2 0C728.3 0 685.7 0 642.8 0C600 0 557 0 514.2 0C471.3 0 428.7 0 385.8 0C343 0 300 0 257.2 0C214.3 0 171.7 0 128.8 0C86 0 43 0 21.5 0L0 0Z" fill="#030c1c"></path><path d="M0 32L21.5 29.8C43 27.7 86 23.3 128.8 22.8C171.7 22.3 214.3 25.7 257.2 27.7C300 29.7 343 30.3 385.8 30.2C428.7 30 471.3 29 514.2 28.7C557 28.3 600 28.7 642.8 30.8C685.7 33 728.3 37 771.2 38.3C814 39.7 857 38.3 878.5 37.7L900 37L900 16L878.5 16.7C857 17.3 814 18.7 771.2 17.8C728.3 17 685.7 14 642.8 13.7C600 13.3 557 15.7 514.2 16.5C471.3 17.3 428.7 16.7 385.8 14.5C343 12.3 300 8.7 257.2 7.2C214.3 5.7 171.7 6.3 128.8 6.8C86 7.3 43 7.7 21.5 7.8L0 8Z" fill="#040e20"></path><path d="M0 62L21.5 61.2C43 60.3 86 58.7 128.8 58.8C171.7 59 214.3 61 257.2 61.8C300 62.7 343 62.3 385.8 60.2C428.7 58 471.3 54 514.2 51.8C557 49.7 600 49.3 642.8 53C685.7 56.7 728.3 64.3 771.2 67.7C814 71 857 70 878.5 69.5L900 69L900 35L878.5 35.7C857 36.3 814 37.7 771.2 36.3C728.3 35 685.7 31 642.8 28.8C600 26.7 557 26.3 514.2 26.7C471.3 27 428.7 28 385.8 28.2C343 28.3 300 27.7 257.2 25.7C214.3 23.7 171.7 20.3 128.8 20.8C86 21.3 43 25.7 21.5 27.8L0 30Z" fill="#050f23"></path><path d="M0 86L21.5 84.7C43 83.3 86 80.7 128.8 80.2C171.7 79.7 214.3 81.3 257.2 82C300 82.7 343 82.3 385.8 82.5C428.7 82.7 471.3 83.3 514.2 83.8C557 84.3 600 84.7 642.8 85.5C685.7 86.3 728.3 87.7 771.2 86.7C814 85.7 857 82.3 878.5 80.7L900 79L900 67L878.5 67.5C857 68 814 69 771.2 65.7C728.3 62.3 685.7 54.7 642.8 51C600 47.3 557 47.7 514.2 49.8C471.3 52 428.7 56 385.8 58.2C343 60.3 300 60.7 257.2 59.8C214.3 59 171.7 57 128.8 56.8C86 56.7 43 58.3 21.5 59.2L0 60Z" fill="#051127"></path><path d="M0 96L21.5 95.3C43 94.7 86 93.3 128.8 93.3C171.7 93.3 214.3 94.7 257.2 94.7C300 94.7 343 93.3 385.8 92.8C428.7 92.3 471.3 92.7 514.2 92.8C557 93 600 93 642.8 93.3C685.7 93.7 728.3 94.3 771.2 93.5C814 92.7 857 90.3 878.5 89.2L900 88L900 77L878.5 78.7C857 80.3 814 83.7 771.2 84.7C728.3 85.7 685.7 84.3 642.8 83.5C600 82.7 557 82.3 514.2 81.8C471.3 81.3 428.7 80.7 385.8 80.5C343 80.3 300 80.7 257.2 80C214.3 79.3 171.7 77.7 128.8 78.2C86 78.7 43 81.3 21.5 82.7L0 84Z" fill="#05122a"></path><path d="M0 101L21.5 101C43 101 86 101 128.8 101C171.7 101 214.3 101 257.2 101C300 101 343 101 385.8 101C428.7 101 471.3 101 514.2 101C557 101 600 101 642.8 101C685.7 101 728.3 101 771.2 101C814 101 857 101 878.5 101L900 101L900 86L878.5 87.2C857 88.3 814 90.7 771.2 91.5C728.3 92.3 685.7 91.7 642.8 91.3C600 91 557 91 514.2 90.8C471.3 90.7 428.7 90.3 385.8 90.8C343 91.3 300 92.7 257.2 92.7C214.3 92.7 171.7 91.3 128.8 91.3C86 91.3 43 92.7 21.5 93.3L0 94Z" fill="#05142e"></path></svg>